<svg width="474" height="52" viewBox="0 0 474 52" fill="none" xmlns="http://www.w3.org/2000/svg">
<rect width="474" height="52" rx="4" fill="#FEFEFE"/>
<path d="M32.6523 19.5273L27.7891 34H24.3789L30.7539 16.9375H32.9336L32.6523 19.5273ZM36.7188 34L31.832 19.5273L31.5391 16.9375H33.7305L40.1406 34H36.7188ZM36.4961 27.6602V30.2031H27.3438V27.6602H36.4961ZM49.2695 31.3047V16H52.3867V34H49.5742L49.2695 31.3047ZM41.125 27.8125V27.5664C41.125 26.5977 41.2344 25.7188 41.4531 24.9297C41.6797 24.1328 42.0078 23.4492 42.4375 22.8789C42.8672 22.3086 43.3867 21.8672 43.9961 21.5547C44.6133 21.2422 45.3125 21.0859 46.0938 21.0859C46.8516 21.0859 47.5117 21.2383 48.0742 21.543C48.6445 21.8477 49.1289 22.2812 49.5273 22.8438C49.9336 23.4062 50.2578 24.0742 50.5 24.8477C50.7422 25.6133 50.918 26.457 51.0273 27.3789V28.0469C50.918 28.9453 50.7422 29.7695 50.5 30.5195C50.2578 31.2695 49.9336 31.9258 49.5273 32.4883C49.1289 33.043 48.6445 33.4727 48.0742 33.7773C47.5039 34.082 46.8359 34.2344 46.0703 34.2344C45.2969 34.2344 44.6016 34.0742 43.9844 33.7539C43.375 33.4336 42.8555 32.9844 42.4258 32.4062C42.0039 31.8281 41.6797 31.1484 41.4531 30.3672C41.2344 29.5859 41.125 28.7344 41.125 27.8125ZM44.2305 27.5664V27.8125C44.2305 28.3594 44.2773 28.8711 44.3711 29.3477C44.4648 29.8242 44.6172 30.2461 44.8281 30.6133C45.0391 30.9727 45.3086 31.2539 45.6367 31.457C45.9727 31.6602 46.3789 31.7617 46.8555 31.7617C47.4648 31.7617 47.9648 31.6289 48.3555 31.3633C48.7539 31.0898 49.0625 30.7188 49.2812 30.25C49.5 29.7734 49.6406 29.2383 49.7031 28.6445V26.8047C49.6719 26.3359 49.5898 25.9023 49.457 25.5039C49.332 25.1055 49.1523 24.7617 48.918 24.4727C48.6914 24.1836 48.4102 23.957 48.0742 23.793C47.7383 23.6289 47.3398 23.5469 46.8789 23.5469C46.4023 23.5469 45.9961 23.6523 45.6602 23.8633C45.3242 24.0664 45.0508 24.3516 44.8398 24.7188C44.6289 25.0859 44.4727 25.5117 44.3711 25.9961C44.2773 26.4805 44.2305 27.0039 44.2305 27.5664ZM62.793 31.3047V16H65.9102V34H63.0977L62.793 31.3047ZM54.6484 27.8125V27.5664C54.6484 26.5977 54.7578 25.7188 54.9766 24.9297C55.2031 24.1328 55.5312 23.4492 55.9609 22.8789C56.3906 22.3086 56.9102 21.8672 57.5195 21.5547C58.1367 21.2422 58.8359 21.0859 59.6172 21.0859C60.375 21.0859 61.0352 21.2383 61.5977 21.543C62.168 21.8477 62.6523 22.2812 63.0508 22.8438C63.457 23.4062 63.7812 24.0742 64.0234 24.8477C64.2656 25.6133 64.4414 26.457 64.5508 27.3789V28.0469C64.4414 28.9453 64.2656 29.7695 64.0234 30.5195C63.7812 31.2695 63.457 31.9258 63.0508 32.4883C62.6523 33.043 62.168 33.4727 61.5977 33.7773C61.0273 34.082 60.3594 34.2344 59.5938 34.2344C58.8203 34.2344 58.125 34.0742 57.5078 33.7539C56.8984 33.4336 56.3789 32.9844 55.9492 32.4062C55.5273 31.8281 55.2031 31.1484 54.9766 30.3672C54.7578 29.5859 54.6484 28.7344 54.6484 27.8125ZM57.7539 27.5664V27.8125C57.7539 28.3594 57.8008 28.8711 57.8945 29.3477C57.9883 29.8242 58.1406 30.2461 58.3516 30.6133C58.5625 30.9727 58.832 31.2539 59.1602 31.457C59.4961 31.6602 59.9023 31.7617 60.3789 31.7617C60.9883 31.7617 61.4883 31.6289 61.8789 31.3633C62.2773 31.0898 62.5859 30.7188 62.8047 30.25C63.0234 29.7734 63.1641 29.2383 63.2266 28.6445V26.8047C63.1953 26.3359 63.1133 25.9023 62.9805 25.5039C62.8555 25.1055 62.6758 24.7617 62.4414 24.4727C62.2148 24.1836 61.9336 23.957 61.5977 23.793C61.2617 23.6289 60.8633 23.5469 60.4023 23.5469C59.9258 23.5469 59.5195 23.6523 59.1836 23.8633C58.8477 24.0664 58.5742 24.3516 58.3633 24.7188C58.1523 25.0859 57.9961 25.5117 57.8945 25.9961C57.8008 26.4805 57.7539 27.0039 57.7539 27.5664ZM76.3281 16.9375H79.1172L83.7812 29.7812L88.4336 16.9375H91.2344L84.8945 34H82.6562L76.3281 16.9375ZM74.9219 16.9375H77.6523L78.1445 28.7383V34H74.9219V16.9375ZM89.8984 16.9375H92.6406V34H89.418V28.7383L89.8984 16.9375ZM103.234 30.9883V21.3203H106.352V34H103.422L103.234 30.9883ZM103.633 28.3633L104.594 28.3398C104.594 29.1914 104.5 29.9766 104.312 30.6953C104.125 31.4141 103.832 32.0391 103.434 32.5703C103.043 33.0938 102.547 33.5039 101.945 33.8008C101.344 34.0898 100.633 34.2344 99.8125 34.2344C99.1875 34.2344 98.6172 34.1484 98.1016 33.9766C97.5859 33.7969 97.1406 33.5195 96.7656 33.1445C96.3984 32.7617 96.1133 32.2734 95.9102 31.6797C95.707 31.0781 95.6055 30.3555 95.6055 29.5117V21.3203H98.6992V29.5352C98.6992 29.957 98.7461 30.3086 98.8398 30.5898C98.9414 30.8711 99.0781 31.1016 99.25 31.2812C99.4297 31.4531 99.6367 31.5781 99.8711 31.6562C100.113 31.7266 100.371 31.7617 100.645 31.7617C101.395 31.7617 101.984 31.6133 102.414 31.3164C102.852 31.0117 103.164 30.6055 103.352 30.0977C103.539 29.582 103.633 29.0039 103.633 28.3633ZM112.129 24.0273V34H109.035V21.3203H111.941L112.129 24.0273ZM111.637 27.2031H110.723C110.73 26.2812 110.855 25.4453 111.098 24.6953C111.34 23.9453 111.68 23.3008 112.117 22.7617C112.562 22.2227 113.09 21.8086 113.699 21.5195C114.309 21.2305 114.988 21.0859 115.738 21.0859C116.348 21.0859 116.898 21.1719 117.391 21.3438C117.883 21.5156 118.305 21.7891 118.656 22.1641C119.016 22.5391 119.289 23.0312 119.477 23.6406C119.672 24.2422 119.77 24.9844 119.77 25.8672V34H116.652V25.8438C116.652 25.2656 116.566 24.8086 116.395 24.4727C116.23 24.1367 115.988 23.8984 115.668 23.7578C115.355 23.6172 114.969 23.5469 114.508 23.5469C114.031 23.5469 113.613 23.6445 113.254 23.8398C112.902 24.0273 112.605 24.2891 112.363 24.625C112.129 24.9609 111.949 25.3477 111.824 25.7852C111.699 26.2227 111.637 26.6953 111.637 27.2031ZM125.781 21.3203V34H122.676V21.3203H125.781ZM122.465 18.0039C122.465 17.543 122.621 17.1602 122.934 16.8555C123.254 16.5508 123.684 16.3984 124.223 16.3984C124.762 16.3984 125.188 16.5508 125.5 16.8555C125.82 17.1602 125.98 17.543 125.98 18.0039C125.98 18.457 125.82 18.8359 125.5 19.1406C125.188 19.4453 124.762 19.5977 124.223 19.5977C123.684 19.5977 123.254 19.4453 122.934 19.1406C122.621 18.8359 122.465 18.457 122.465 18.0039ZM131.77 24.0273V34H128.676V21.3203H131.582L131.77 24.0273ZM131.277 27.2031H130.363C130.371 26.2812 130.496 25.4453 130.738 24.6953C130.98 23.9453 131.32 23.3008 131.758 22.7617C132.203 22.2227 132.73 21.8086 133.34 21.5195C133.949 21.2305 134.629 21.0859 135.379 21.0859C135.988 21.0859 136.539 21.1719 137.031 21.3438C137.523 21.5156 137.945 21.7891 138.297 22.1641C138.656 22.5391 138.93 23.0312 139.117 23.6406C139.312 24.2422 139.41 24.9844 139.41 25.8672V34H136.293V25.8438C136.293 25.2656 136.207 24.8086 136.035 24.4727C135.871 24.1367 135.629 23.8984 135.309 23.7578C134.996 23.6172 134.609 23.5469 134.148 23.5469C133.672 23.5469 133.254 23.6445 132.895 23.8398C132.543 24.0273 132.246 24.2891 132.004 24.625C131.77 24.9609 131.59 25.3477 131.465 25.7852C131.34 26.2227 131.277 26.6953 131.277 27.2031ZM145.176 24.0273V34H142.082V21.3203H144.988L145.176 24.0273ZM144.684 27.2031H143.77C143.777 26.2812 143.902 25.4453 144.145 24.6953C144.387 23.9453 144.727 23.3008 145.164 22.7617C145.609 22.2227 146.137 21.8086 146.746 21.5195C147.355 21.2305 148.035 21.0859 148.785 21.0859C149.395 21.0859 149.945 21.1719 150.438 21.3438C150.93 21.5156 151.352 21.7891 151.703 22.1641C152.062 22.5391 152.336 23.0312 152.523 23.6406C152.719 24.2422 152.816 24.9844 152.816 25.8672V34H149.699V25.8438C149.699 25.2656 149.613 24.8086 149.441 24.4727C149.277 24.1367 149.035 23.8984 148.715 23.7578C148.402 23.6172 148.016 23.5469 147.555 23.5469C147.078 23.5469 146.66 23.6445 146.301 23.8398C145.949 24.0273 145.652 24.2891 145.41 24.625C145.176 24.9609 144.996 25.3477 144.871 25.7852C144.746 26.2227 144.684 26.6953 144.684 27.2031ZM167.523 21.3203V23.5469H160.258V21.3203H167.523ZM162.203 18.2031H165.309V30.3438C165.309 30.7188 165.359 31.0078 165.461 31.2109C165.562 31.4141 165.715 31.5508 165.918 31.6211C166.121 31.6914 166.363 31.7266 166.645 31.7266C166.848 31.7266 167.035 31.7148 167.207 31.6914C167.379 31.668 167.523 31.6445 167.641 31.6211L167.652 33.9414C167.395 34.0273 167.102 34.0977 166.773 34.1523C166.453 34.207 166.09 34.2344 165.684 34.2344C164.988 34.2344 164.379 34.1172 163.855 33.8828C163.332 33.6406 162.926 33.2539 162.637 32.7227C162.348 32.1836 162.203 31.4727 162.203 30.5898V18.2031ZM168.73 27.7891V27.543C168.73 26.6133 168.863 25.7578 169.129 24.9766C169.395 24.1875 169.781 23.5039 170.289 22.9258C170.797 22.3477 171.418 21.8984 172.152 21.5781C172.887 21.25 173.723 21.0859 174.66 21.0859C175.613 21.0859 176.457 21.25 177.191 21.5781C177.934 21.8984 178.559 22.3477 179.066 22.9258C179.574 23.5039 179.961 24.1875 180.227 24.9766C180.492 25.7578 180.625 26.6133 180.625 27.543V27.7891C180.625 28.7109 180.492 29.5664 180.227 30.3555C179.961 31.1367 179.574 31.8203 179.066 32.4062C178.559 32.9844 177.938 33.4336 177.203 33.7539C176.469 34.0742 175.629 34.2344 174.684 34.2344C173.746 34.2344 172.906 34.0742 172.164 33.7539C171.422 33.4336 170.797 32.9844 170.289 32.4062C169.781 31.8203 169.395 31.1367 169.129 30.3555C168.863 29.5664 168.73 28.7109 168.73 27.7891ZM171.824 27.543V27.7891C171.824 28.3438 171.879 28.8633 171.988 29.3477C172.098 29.832 172.266 30.2578 172.492 30.625C172.719 30.9922 173.012 31.2812 173.371 31.4922C173.738 31.6953 174.176 31.7969 174.684 31.7969C175.184 31.7969 175.613 31.6953 175.973 31.4922C176.332 31.2812 176.625 30.9922 176.852 30.625C177.086 30.2578 177.258 29.832 177.367 29.3477C177.477 28.8633 177.531 28.3438 177.531 27.7891V27.543C177.531 26.9961 177.477 26.4844 177.367 26.0078C177.258 25.5234 177.086 25.0977 176.852 24.7305C176.625 24.3555 176.328 24.0625 175.961 23.8516C175.602 23.6328 175.168 23.5234 174.66 23.5234C174.16 23.5234 173.73 23.6328 173.371 23.8516C173.012 24.0625 172.719 24.3555 172.492 24.7305C172.266 25.0977 172.098 25.5234 171.988 26.0078C171.879 26.4844 171.824 26.9961 171.824 27.543ZM192.566 32.5938L195.965 21.3203H199.281L194.195 35.9219C194.078 36.2344 193.926 36.5742 193.738 36.9414C193.559 37.3086 193.316 37.6562 193.012 37.9844C192.707 38.3203 192.324 38.5938 191.863 38.8047C191.41 39.0156 190.859 39.1211 190.211 39.1211C189.93 39.1211 189.68 39.1016 189.461 39.0625C189.242 39.0234 189.012 38.9727 188.77 38.9102V36.5898C188.848 36.5977 188.938 36.6016 189.039 36.6016C189.148 36.6094 189.242 36.6133 189.32 36.6133C189.773 36.6133 190.148 36.5586 190.445 36.4492C190.742 36.3477 190.98 36.1797 191.16 35.9453C191.348 35.7188 191.504 35.4219 191.629 35.0547L192.566 32.5938ZM190.891 21.3203L193.762 30.6602L194.266 33.9297L192.133 34.3164L187.551 21.3203H190.891ZM200.043 27.7891V27.543C200.043 26.6133 200.176 25.7578 200.441 24.9766C200.707 24.1875 201.094 23.5039 201.602 22.9258C202.109 22.3477 202.73 21.8984 203.465 21.5781C204.199 21.25 205.035 21.0859 205.973 21.0859C206.926 21.0859 207.77 21.25 208.504 21.5781C209.246 21.8984 209.871 22.3477 210.379 22.9258C210.887 23.5039 211.273 24.1875 211.539 24.9766C211.805 25.7578 211.938 26.6133 211.938 27.543V27.7891C211.938 28.7109 211.805 29.5664 211.539 30.3555C211.273 31.1367 210.887 31.8203 210.379 32.4062C209.871 32.9844 209.25 33.4336 208.516 33.7539C207.781 34.0742 206.941 34.2344 205.996 34.2344C205.059 34.2344 204.219 34.0742 203.477 33.7539C202.734 33.4336 202.109 32.9844 201.602 32.4062C201.094 31.8203 200.707 31.1367 200.441 30.3555C200.176 29.5664 200.043 28.7109 200.043 27.7891ZM203.137 27.543V27.7891C203.137 28.3438 203.191 28.8633 203.301 29.3477C203.41 29.832 203.578 30.2578 203.805 30.625C204.031 30.9922 204.324 31.2812 204.684 31.4922C205.051 31.6953 205.488 31.7969 205.996 31.7969C206.496 31.7969 206.926 31.6953 207.285 31.4922C207.645 31.2812 207.938 30.9922 208.164 30.625C208.398 30.2578 208.57 29.832 208.68 29.3477C208.789 28.8633 208.844 28.3438 208.844 27.7891V27.543C208.844 26.9961 208.789 26.4844 208.68 26.0078C208.57 25.5234 208.398 25.0977 208.164 24.7305C207.938 24.3555 207.641 24.0625 207.273 23.8516C206.914 23.6328 206.48 23.5234 205.973 23.5234C205.473 23.5234 205.043 23.6328 204.684 23.8516C204.324 24.0625 204.031 24.3555 203.805 24.7305C203.578 25.0977 203.41 25.5234 203.301 26.0078C203.191 26.4844 203.137 26.9961 203.137 27.543ZM221.734 30.9883V21.3203H224.852V34H221.922L221.734 30.9883ZM222.133 28.3633L223.094 28.3398C223.094 29.1914 223 29.9766 222.812 30.6953C222.625 31.4141 222.332 32.0391 221.934 32.5703C221.543 33.0938 221.047 33.5039 220.445 33.8008C219.844 34.0898 219.133 34.2344 218.312 34.2344C217.688 34.2344 217.117 34.1484 216.602 33.9766C216.086 33.7969 215.641 33.5195 215.266 33.1445C214.898 32.7617 214.613 32.2734 214.41 31.6797C214.207 31.0781 214.105 30.3555 214.105 29.5117V21.3203H217.199V29.5352C217.199 29.957 217.246 30.3086 217.34 30.5898C217.441 30.8711 217.578 31.1016 217.75 31.2812C217.93 31.4531 218.137 31.5781 218.371 31.6562C218.613 31.7266 218.871 31.7617 219.145 31.7617C219.895 31.7617 220.484 31.6133 220.914 31.3164C221.352 31.0117 221.664 30.6055 221.852 30.0977C222.039 29.582 222.133 29.0039 222.133 28.3633ZM230.688 23.9102V34H227.594V21.3203H230.523L230.688 23.9102ZM234.543 21.2383L234.496 24.1211C234.324 24.0898 234.129 24.0664 233.91 24.0508C233.699 24.0352 233.5 24.0273 233.312 24.0273C232.836 24.0273 232.418 24.0938 232.059 24.2266C231.699 24.3516 231.398 24.5352 231.156 24.7773C230.922 25.0195 230.742 25.3164 230.617 25.668C230.492 26.0117 230.422 26.4023 230.406 26.8398L229.738 26.7578C229.738 25.9531 229.82 25.207 229.984 24.5195C230.148 23.832 230.387 23.2305 230.699 22.7148C231.012 22.1992 231.402 21.8008 231.871 21.5195C232.348 21.2305 232.895 21.0859 233.512 21.0859C233.684 21.0859 233.867 21.1016 234.062 21.1328C234.266 21.1562 234.426 21.1914 234.543 21.2383ZM241.668 27.7891V27.543C241.668 26.6133 241.801 25.7578 242.066 24.9766C242.332 24.1875 242.719 23.5039 243.227 22.9258C243.734 22.3477 244.355 21.8984 245.09 21.5781C245.824 21.25 246.66 21.0859 247.598 21.0859C248.551 21.0859 249.395 21.25 250.129 21.5781C250.871 21.8984 251.496 22.3477 252.004 22.9258C252.512 23.5039 252.898 24.1875 253.164 24.9766C253.43 25.7578 253.562 26.6133 253.562 27.543V27.7891C253.562 28.7109 253.43 29.5664 253.164 30.3555C252.898 31.1367 252.512 31.8203 252.004 32.4062C251.496 32.9844 250.875 33.4336 250.141 33.7539C249.406 34.0742 248.566 34.2344 247.621 34.2344C246.684 34.2344 245.844 34.0742 245.102 33.7539C244.359 33.4336 243.734 32.9844 243.227 32.4062C242.719 31.8203 242.332 31.1367 242.066 30.3555C241.801 29.5664 241.668 28.7109 241.668 27.7891ZM244.762 27.543V27.7891C244.762 28.3438 244.816 28.8633 244.926 29.3477C245.035 29.832 245.203 30.2578 245.43 30.625C245.656 30.9922 245.949 31.2812 246.309 31.4922C246.676 31.6953 247.113 31.7969 247.621 31.7969C248.121 31.7969 248.551 31.6953 248.91 31.4922C249.27 31.2812 249.562 30.9922 249.789 30.625C250.023 30.2578 250.195 29.832 250.305 29.3477C250.414 28.8633 250.469 28.3438 250.469 27.7891V27.543C250.469 26.9961 250.414 26.4844 250.305 26.0078C250.195 25.5234 250.023 25.0977 249.789 24.7305C249.562 24.3555 249.266 24.0625 248.898 23.8516C248.539 23.6328 248.105 23.5234 247.598 23.5234C247.098 23.5234 246.668 23.6328 246.309 23.8516C245.949 24.0625 245.656 24.3555 245.43 24.7305C245.203 25.0977 245.035 25.5234 244.926 26.0078C244.816 26.4844 244.762 26.9961 244.762 27.543ZM259.34 30.9531L262.117 21.3203H264.086L263.5 24.6484L260.699 34H259L259.34 30.9531ZM257.805 21.3203L259.891 30.9766L260.078 34H258.121L254.793 21.3203H257.805ZM266.664 30.8359L268.703 21.3203H271.703L268.398 34H266.441L266.664 30.8359ZM264.391 21.3203L267.145 30.8594L267.508 34H265.809L262.984 24.6484L262.41 21.3203H264.391ZM276.566 24.0273V34H273.473V21.3203H276.379L276.566 24.0273ZM276.074 27.2031H275.16C275.168 26.2812 275.293 25.4453 275.535 24.6953C275.777 23.9453 276.117 23.3008 276.555 22.7617C277 22.2227 277.527 21.8086 278.137 21.5195C278.746 21.2305 279.426 21.0859 280.176 21.0859C280.785 21.0859 281.336 21.1719 281.828 21.3438C282.32 21.5156 282.742 21.7891 283.094 22.1641C283.453 22.5391 283.727 23.0312 283.914 23.6406C284.109 24.2422 284.207 24.9844 284.207 25.8672V34H281.09V25.8438C281.09 25.2656 281.004 24.8086 280.832 24.4727C280.668 24.1367 280.426 23.8984 280.105 23.7578C279.793 23.6172 279.406 23.5469 278.945 23.5469C278.469 23.5469 278.051 23.6445 277.691 23.8398C277.34 24.0273 277.043 24.2891 276.801 24.625C276.566 24.9609 276.387 25.3477 276.262 25.7852C276.137 26.2227 276.074 26.6953 276.074 27.2031ZM299.887 30.5312C299.887 30.2656 299.816 30.0273 299.676 29.8164C299.535 29.6055 299.27 29.4141 298.879 29.2422C298.496 29.0625 297.934 28.8945 297.191 28.7383C296.535 28.5977 295.93 28.4219 295.375 28.2109C294.82 28 294.344 27.7461 293.945 27.4492C293.547 27.1445 293.234 26.7891 293.008 26.3828C292.789 25.9688 292.68 25.4922 292.68 24.9531C292.68 24.4297 292.793 23.9375 293.02 23.4766C293.246 23.0078 293.574 22.5977 294.004 22.2461C294.434 21.8867 294.957 21.6055 295.574 21.4023C296.191 21.1914 296.887 21.0859 297.66 21.0859C298.738 21.0859 299.664 21.2617 300.438 21.6133C301.219 21.9648 301.816 22.4492 302.23 23.0664C302.645 23.6758 302.852 24.3633 302.852 25.1289H299.758C299.758 24.793 299.68 24.4883 299.523 24.2148C299.375 23.9414 299.145 23.7227 298.832 23.5586C298.52 23.3867 298.125 23.3008 297.648 23.3008C297.219 23.3008 296.855 23.3711 296.559 23.5117C296.27 23.6523 296.051 23.8359 295.902 24.0625C295.754 24.2891 295.68 24.5391 295.68 24.8125C295.68 25.0156 295.719 25.1992 295.797 25.3633C295.883 25.5195 296.02 25.6641 296.207 25.7969C296.395 25.9297 296.648 26.0508 296.969 26.1602C297.297 26.2695 297.699 26.375 298.176 26.4766C299.121 26.6641 299.945 26.9141 300.648 27.2266C301.359 27.5312 301.914 27.9375 302.312 28.4453C302.711 28.9531 302.91 29.6016 302.91 30.3906C302.91 30.9531 302.789 31.4688 302.547 31.9375C302.305 32.3984 301.953 32.8008 301.492 33.1445C301.031 33.4883 300.48 33.7578 299.84 33.9531C299.199 34.1406 298.477 34.2344 297.672 34.2344C296.508 34.2344 295.523 34.0273 294.719 33.6133C293.914 33.1914 293.305 32.6602 292.891 32.0195C292.477 31.3711 292.27 30.6992 292.27 30.0039H295.234C295.258 30.4961 295.391 30.8906 295.633 31.1875C295.875 31.4844 296.18 31.6992 296.547 31.832C296.922 31.957 297.316 32.0195 297.73 32.0195C298.199 32.0195 298.594 31.957 298.914 31.832C299.234 31.6992 299.477 31.5234 299.641 31.3047C299.805 31.0781 299.887 30.8203 299.887 30.5312ZM310.961 34.2344C310 34.2344 309.137 34.0781 308.371 33.7656C307.605 33.4531 306.953 33.0195 306.414 32.4648C305.883 31.9023 305.473 31.25 305.184 30.5078C304.902 29.7578 304.762 28.9531 304.762 28.0938V27.625C304.762 26.6484 304.902 25.7617 305.184 24.9648C305.465 24.1602 305.863 23.4688 306.379 22.8906C306.895 22.3125 307.512 21.8672 308.23 21.5547C308.949 21.2422 309.742 21.0859 310.609 21.0859C311.508 21.0859 312.301 21.2383 312.988 21.543C313.676 21.8398 314.25 22.2617 314.711 22.8086C315.172 23.3555 315.52 24.0117 315.754 24.7773C315.988 25.5352 316.105 26.375 316.105 27.2969V28.5977H306.168V26.4648H313.059V26.2305C313.043 25.7383 312.949 25.2891 312.777 24.8828C312.605 24.4688 312.34 24.1406 311.98 23.8984C311.621 23.6484 311.156 23.5234 310.586 23.5234C310.125 23.5234 309.723 23.625 309.379 23.8281C309.043 24.0234 308.762 24.3047 308.535 24.6719C308.316 25.0312 308.152 25.4609 308.043 25.9609C307.934 26.4609 307.879 27.0156 307.879 27.625V28.0938C307.879 28.625 307.949 29.1172 308.09 29.5703C308.238 30.0234 308.453 30.418 308.734 30.7539C309.023 31.082 309.367 31.3398 309.766 31.5273C310.172 31.707 310.633 31.7969 311.148 31.7969C311.797 31.7969 312.383 31.6719 312.906 31.4219C313.438 31.1641 313.898 30.7852 314.289 30.2852L315.848 31.9023C315.582 32.293 315.223 32.668 314.77 33.0273C314.324 33.3867 313.785 33.6797 313.152 33.9062C312.52 34.125 311.789 34.2344 310.961 34.2344ZM321.273 23.9102V34H318.18V21.3203H321.109L321.273 23.9102ZM325.129 21.2383L325.082 24.1211C324.91 24.0898 324.715 24.0664 324.496 24.0508C324.285 24.0352 324.086 24.0273 323.898 24.0273C323.422 24.0273 323.004 24.0938 322.645 24.2266C322.285 24.3516 321.984 24.5352 321.742 24.7773C321.508 25.0195 321.328 25.3164 321.203 25.668C321.078 26.0117 321.008 26.4023 320.992 26.8398L320.324 26.7578C320.324 25.9531 320.406 25.207 320.57 24.5195C320.734 23.832 320.973 23.2305 321.285 22.7148C321.598 22.1992 321.988 21.8008 322.457 21.5195C322.934 21.2305 323.48 21.0859 324.098 21.0859C324.27 21.0859 324.453 21.1016 324.648 21.1328C324.852 21.1562 325.012 21.1914 325.129 21.2383ZM331.246 31.6562L334.199 21.3203H337.434L333.086 34H331.117L331.246 31.6562ZM329.09 21.3203L332.078 31.6797L332.184 34H330.203L325.844 21.3203H329.09ZM344.594 34.2344C343.633 34.2344 342.77 34.0781 342.004 33.7656C341.238 33.4531 340.586 33.0195 340.047 32.4648C339.516 31.9023 339.105 31.25 338.816 30.5078C338.535 29.7578 338.395 28.9531 338.395 28.0938V27.625C338.395 26.6484 338.535 25.7617 338.816 24.9648C339.098 24.1602 339.496 23.4688 340.012 22.8906C340.527 22.3125 341.145 21.8672 341.863 21.5547C342.582 21.2422 343.375 21.0859 344.242 21.0859C345.141 21.0859 345.934 21.2383 346.621 21.543C347.309 21.8398 347.883 22.2617 348.344 22.8086C348.805 23.3555 349.152 24.0117 349.387 24.7773C349.621 25.5352 349.738 26.375 349.738 27.2969V28.5977H339.801V26.4648H346.691V26.2305C346.676 25.7383 346.582 25.2891 346.41 24.8828C346.238 24.4688 345.973 24.1406 345.613 23.8984C345.254 23.6484 344.789 23.5234 344.219 23.5234C343.758 23.5234 343.355 23.625 343.012 23.8281C342.676 24.0234 342.395 24.3047 342.168 24.6719C341.949 25.0312 341.785 25.4609 341.676 25.9609C341.566 26.4609 341.512 27.0156 341.512 27.625V28.0938C341.512 28.625 341.582 29.1172 341.723 29.5703C341.871 30.0234 342.086 30.418 342.367 30.7539C342.656 31.082 343 31.3398 343.398 31.5273C343.805 31.707 344.266 31.7969 344.781 31.7969C345.43 31.7969 346.016 31.6719 346.539 31.4219C347.07 31.1641 347.531 30.7852 347.922 30.2852L349.48 31.9023C349.215 32.293 348.855 32.668 348.402 33.0273C347.957 33.3867 347.418 33.6797 346.785 33.9062C346.152 34.125 345.422 34.2344 344.594 34.2344ZM354.906 23.9102V34H351.812V21.3203H354.742L354.906 23.9102ZM358.762 21.2383L358.715 24.1211C358.543 24.0898 358.348 24.0664 358.129 24.0508C357.918 24.0352 357.719 24.0273 357.531 24.0273C357.055 24.0273 356.637 24.0938 356.277 24.2266C355.918 24.3516 355.617 24.5352 355.375 24.7773C355.141 25.0195 354.961 25.3164 354.836 25.668C354.711 26.0117 354.641 26.4023 354.625 26.8398L353.957 26.7578C353.957 25.9531 354.039 25.207 354.203 24.5195C354.367 23.832 354.605 23.2305 354.918 22.7148C355.23 22.1992 355.621 21.8008 356.09 21.5195C356.566 21.2305 357.113 21.0859 357.73 21.0859C357.902 21.0859 358.086 21.1016 358.281 21.1328C358.484 21.1562 358.645 21.1914 358.762 21.2383ZM369.473 24.0273V34H366.379V21.3203H369.285L369.473 24.0273ZM368.98 27.2031H368.066C368.074 26.2812 368.199 25.4453 368.441 24.6953C368.684 23.9453 369.023 23.3008 369.461 22.7617C369.906 22.2227 370.434 21.8086 371.043 21.5195C371.652 21.2305 372.332 21.0859 373.082 21.0859C373.691 21.0859 374.242 21.1719 374.734 21.3438C375.227 21.5156 375.648 21.7891 376 22.1641C376.359 22.5391 376.633 23.0312 376.82 23.6406C377.016 24.2422 377.113 24.9844 377.113 25.8672V34H373.996V25.8438C373.996 25.2656 373.91 24.8086 373.738 24.4727C373.574 24.1367 373.332 23.8984 373.012 23.7578C372.699 23.6172 372.312 23.5469 371.852 23.5469C371.375 23.5469 370.957 23.6445 370.598 23.8398C370.246 24.0273 369.949 24.2891 369.707 24.625C369.473 24.9609 369.293 25.3477 369.168 25.7852C369.043 26.2227 368.98 26.6953 368.98 27.2031ZM379.293 27.7891V27.543C379.293 26.6133 379.426 25.7578 379.691 24.9766C379.957 24.1875 380.344 23.5039 380.852 22.9258C381.359 22.3477 381.98 21.8984 382.715 21.5781C383.449 21.25 384.285 21.0859 385.223 21.0859C386.176 21.0859 387.02 21.25 387.754 21.5781C388.496 21.8984 389.121 22.3477 389.629 22.9258C390.137 23.5039 390.523 24.1875 390.789 24.9766C391.055 25.7578 391.188 26.6133 391.188 27.543V27.7891C391.188 28.7109 391.055 29.5664 390.789 30.3555C390.523 31.1367 390.137 31.8203 389.629 32.4062C389.121 32.9844 388.5 33.4336 387.766 33.7539C387.031 34.0742 386.191 34.2344 385.246 34.2344C384.309 34.2344 383.469 34.0742 382.727 33.7539C381.984 33.4336 381.359 32.9844 380.852 32.4062C380.344 31.8203 379.957 31.1367 379.691 30.3555C379.426 29.5664 379.293 28.7109 379.293 27.7891ZM382.387 27.543V27.7891C382.387 28.3438 382.441 28.8633 382.551 29.3477C382.66 29.832 382.828 30.2578 383.055 30.625C383.281 30.9922 383.574 31.2812 383.934 31.4922C384.301 31.6953 384.738 31.7969 385.246 31.7969C385.746 31.7969 386.176 31.6953 386.535 31.4922C386.895 31.2812 387.188 30.9922 387.414 30.625C387.648 30.2578 387.82 29.832 387.93 29.3477C388.039 28.8633 388.094 28.3438 388.094 27.7891V27.543C388.094 26.9961 388.039 26.4844 387.93 26.0078C387.82 25.5234 387.648 25.0977 387.414 24.7305C387.188 24.3555 386.891 24.0625 386.523 23.8516C386.164 23.6328 385.73 23.5234 385.223 23.5234C384.723 23.5234 384.293 23.6328 383.934 23.8516C383.574 24.0625 383.281 24.3555 383.055 24.7305C382.828 25.0977 382.66 25.5234 382.551 26.0078C382.441 26.4844 382.387 26.9961 382.387 27.543ZM396.965 30.9531L399.742 21.3203H401.711L401.125 24.6484L398.324 34H396.625L396.965 30.9531ZM395.43 21.3203L397.516 30.9766L397.703 34H395.746L392.418 21.3203H395.43ZM404.289 30.8359L406.328 21.3203H409.328L406.023 34H404.066L404.289 30.8359ZM402.016 21.3203L404.77 30.8594L405.133 34H403.434L400.609 24.6484L400.035 21.3203H402.016Z" fill="#07070B"/>
<path d="M431 26H445" stroke="#07070B" stroke-width="3" stroke-linecap="round" stroke-linejoin="round"/>
<path d="M438 19L445 26L438 33" stroke="#07070B" stroke-width="3" stroke-linecap="round" stroke-linejoin="round"/>
</svg>
