<svg width="487" height="485" viewBox="0 0 487 485" fill="none" xmlns="http://www.w3.org/2000/svg">
<rect width="486.9" height="484.359" rx="144" fill="#F8F8FB"/>
<path fill-rule="evenodd" clip-rule="evenodd" d="M238.981 122.065C255.671 105.376 278.306 95.9999 301.908 95.9999C325.511 95.9999 348.146 105.376 364.835 122.065C381.524 138.754 390.9 161.39 390.9 184.992C390.9 208.593 381.525 231.228 364.838 247.917L364.835 247.919L278.408 334.602C276.157 336.861 273.099 338.13 269.91 338.13H163.2L116.485 384.844C111.799 389.531 104.201 389.531 99.5147 384.844C94.8284 380.158 94.8284 372.56 99.5147 367.874L148.899 318.49V217.118C148.899 213.936 150.163 210.883 152.414 208.633L238.981 122.065ZM264.929 314.13H187.2L202.744 298.586H280.428L264.929 314.13ZM304.357 274.586L347.852 230.961L347.865 230.948C360.053 218.76 366.9 202.229 366.9 184.992C366.9 167.755 360.053 151.224 347.865 139.036C335.676 126.847 319.145 120 301.908 120C284.671 120 268.14 126.847 255.952 139.036L172.899 222.089V294.49L279.063 188.326C283.749 183.639 291.347 183.639 296.033 188.326C300.72 193.012 300.72 200.61 296.033 205.296L226.744 274.586H304.357Z" fill="#07070B"/>
</svg>
